<svg xmlns="http://www.w3.org/2000/svg" width="104.694" height="36.196" viewBox="0 0 104.694 36.196"><g transform="translate(-2508.027 -736.263)"><path d="M2519.778,750.02v-2.641l2.134,1.32Z" fill="#fff" fill-rule="evenodd"/><text transform="translate(2537.689 758.338)" fill="#52646d" font-size="15.105" font-family="FrutigerLTStd-Bold, Frutiger LT Std" font-weight="700" letter-spacing="0.03em"><tspan x="0" y="0">FIND</tspan></text><path d="M2522.435,756.253a9.4,9.4,0,0,0-4.048.015l1.151,2.312L2517.6,769.6l2.8,2.856,2.8-2.858-1.941-11.009Z" fill="#fff"/><path d="M2520.444,736.263a12.7,12.7,0,0,0-12.417,12.947c0,8.364,5.132,15.541,8.631,19.462l.431-2.455a38.928,38.928,0,0,1-3.549-5.053l.524-4.458a12.934,12.934,0,0,1,12.76,0l.523,4.451a39.058,39.058,0,0,1-3.612,5.13l.433,2.454c3.5-3.906,8.693-11.118,8.693-19.531A12.7,12.7,0,0,0,2520.444,736.263Zm0,16a3.581,3.581,0,1,1,3.581-3.58A3.584,3.584,0,0,1,2520.444,752.26Zm8.162,3.306-.389-.242a13.767,13.767,0,0,0-4.922-1.962,5.484,5.484,0,1,0-5.7,0,13.774,13.774,0,0,0-4.922,1.962l-.389.242-.3,2.571a21.993,21.993,0,0,1-2.049-8.927,10.527,10.527,0,1,1,21.028,0,21.972,21.972,0,0,1-2.05,8.92Z" fill="#fff"/><text transform="translate(2572.721 758.173)" fill="#fff" font-size="15.105" font-family="FrutigerLTStd-Bold, Frutiger LT Std" font-weight="700" letter-spacing="0.03em"><tspan x="0" y="0">SKILL</tspan></text></g></svg>