<?xml version="1.0" encoding="utf-8"?>
<!-- Generator: Adobe Illustrator 25.0.1, SVG Export Plug-In . SVG Version: 6.00 Build 0)  -->
<svg version="1.1" id="Layer_1" xmlns="http://www.w3.org/2000/svg" xmlns:xlink="http://www.w3.org/1999/xlink" x="0px" y="0px"
	 viewBox="0 0 151.31 220.54" style="enable-background:new 0 0 151.31 220.54;" xml:space="preserve">
<style type="text/css">
	.st0{fill-rule:evenodd;clip-rule:evenodd;fill:#52646D;}
	.st1{fill:#52646D;}
	.st2{fill:url(#SVGID_1_);}
</style>
<g>
	<polygon class="st0" points="71.6,83.82 71.6,67.73 84.6,75.78 	"/>
	<g>
		<path class="st1" d="M87.78,121.8c-3.94-0.85-8-1.29-12.13-1.29c-4.27,0-8.46,0.48-12.53,1.39l7.01,14.08l-11.79,67.16l17.09,17.4
			l17.08-17.41l-11.83-67.08L87.78,121.8z"/>
		<linearGradient id="SVGID_1_" gradientUnits="userSpaceOnUse" x1="12.9309" y1="32.3599" x2="138.3988" y2="157.8278">
			<stop  offset="0.05" style="stop-color:#009FE3"/>
			<stop  offset="0.7" style="stop-color:#00AFCB"/>
		</linearGradient>
		<path class="st2" d="M75.65,0C33.94,0,0,35.39,0,78.89c0,50.96,31.27,94.69,52.59,118.58l2.63-14.96
			c-7.05-8.56-14.72-18.98-21.62-30.78l3.19-27.16c12.29-7.17,24.07-10.25,38.87-10.25c14.8,0,26.59,3.09,38.87,10.25l3.19,27.12
			c-7.03,12.02-14.85,22.61-22,31.25l2.64,14.95c21.33-23.8,52.96-67.74,52.96-119C151.31,35.39,117.37,0,75.65,0z M75.65,97.47
			c-12.03,0-21.82-9.79-21.82-21.82c0-12.03,9.79-21.82,21.82-21.82c12.03,0,21.82,9.79,21.82,21.82
			C97.47,87.68,87.68,97.47,75.65,97.47z M125.39,117.61l-2.37-1.47c-9.95-6.19-19.49-10.04-29.99-11.95
			c9.61-5.87,16.04-16.47,16.04-28.53c0-18.42-14.99-33.41-33.41-33.41S42.24,57.23,42.24,75.65c0,12.06,6.43,22.66,16.04,28.53
			c-10.5,1.91-20.04,5.76-29.99,11.95l-2.37,1.47l-1.84,15.67C16.69,116.7,11.6,98.26,11.6,78.89c0-37.1,28.74-67.29,64.06-67.29
			c35.32,0,64.06,30.19,64.06,67.29c0,19.35-5.1,37.78-12.49,54.35L125.39,117.61z"/>
	</g>
</g>
</svg>
