<svg xmlns="http://www.w3.org/2000/svg" width="228" height="273" viewBox="0 0 228 273"><g transform="translate(-60 -74)"><circle cx="96" cy="96" r="96" transform="translate(78 74)" fill="#e6f3fa"/><g transform="translate(-1579 -699)"><ellipse cx="114" cy="5.5" rx="114" ry="5.5" transform="translate(1639 1035)" fill="#d8d8d8"/><path d="M1779,966l-16,75h3l16-75Z" fill="#c9c9c9"/><path d="M1825,1041l16-75h-2l-17,75Z" fill="#c9c9c9"/><path d="M1825,1041h8l15-75h-7Z" fill="#a3a3a3"/><path d="M1766,1041h7l16-75h-7Z" fill="#a3a3a3"/><path d="M1805,1041h-7l-16-75h7Z" fill="#c9c9c9"/><path d="M1864,1041h-7l-16-75h8Z" fill="#c9c9c9"/><path d="M1782,966l16,75h-3l-16-75Z" fill="#a3a3a3"/><path d="M1841,966l16,75h-3l-15-75Z" fill="#a3a3a3"/><path d="M1786,988l8-1,8,37h-8Z" fill="#a3a3a3"/><path d="M1846,988l7-1,8,37h-8Z" fill="#a3a3a3"/><path d="M1776,974l-1,2,3,19h81l1-2Z" fill="#fff"/><path d="M1778,995h81l1-2h-80Z" fill="#c9c9c9"/><path d="M1779,989l1,3h0v1h8l3-4C1787.188,988.93,1782.885,989.179,1779,989Z" fill="#e85300"/><path d="M1805,974h-14l-12,13v2c3.885.179,8.188-.07,12,0Z" fill="#fc6703"/><path d="M1791,989l-3,4h14l3-4C1800.209,989.1,1795.921,989.09,1791,989Z" fill="#e5e5e5"/><path d="M1805,989l15-15h-15l-14,15C1795.921,989.09,1800.209,989.1,1805,989Z" fill="#fff"/><path d="M1776,974l3,13,12-13Z" fill="#fff"/><path d="M1854,984l4-4-2-6h-7l-12,13C1842.947,986.217,1848.335,985.205,1854,984Z" fill="#fc6703"/><path d="M1837,987l-6,6h15l8-9C1848.335,985.205,1842.947,986.217,1837,987Z" fill="#e85300"/><path d="M1854,984l-8,9h14l-2-10C1856.653,983.315,1855.363,983.71,1854,984Z" fill="#e5e5e5"/><path d="M1858,983v-2h0v-1l-4,4C1855.363,983.71,1856.653,983.315,1858,983Z" fill="#fff"/><path d="M1821,988l-4,5h14l6-6C1831.736,987.693,1826.47,987.615,1821,988Z" fill="#e5e5e5"/><path d="M1837,987l12-13h-15l-13,14C1826.47,987.615,1831.736,987.693,1837,987Z" fill="#fff"/><path d="M1805,989l-3,4h15l4-5C1816.007,988.351,1810.153,988.888,1805,989Z" fill="#e85300"/><path d="M1821,988l13-14h-14l-15,15C1810.153,988.888,1816.007,988.351,1821,988Z" fill="#fc6703"/><path d="M1778,995l2-2-1-4-2,1Z" fill="#e5e5e5"/><path d="M1782,999l-2,1,3,19h81l2-1Z" fill="#fff"/><path d="M1783,1019h81l2-1h-81Z" fill="#c9c9c9"/><path d="M1785,1014v3h0v1h8l3-4C1792.188,1013.93,1788.886,1014.18,1785,1014Z" fill="#e85300"/><path d="M1810,999h-14l-12,12,1,3c3.886.18,7.188-.07,11,0Z" fill="#fc6703"/><path d="M1796,1014l-3,4h14l4-4C1806.209,1014.1,1800.921,1014.09,1796,1014Z" fill="#e5e5e5"/><path d="M1811,1014l14-15h-15l-14,15C1800.921,1014.09,1806.209,1014.1,1811,1014Z" fill="#fff"/><path d="M1782,999l2,12,12-12Z" fill="#fff"/><path d="M1859,1009l4-4-1-6h-8l-12,13C1847.947,1011.217,1853.335,1010.2,1859,1009Z" fill="#fc6703"/><path d="M1842,1012l-6,6h15l8-9C1853.335,1010.2,1847.947,1011.217,1842,1012Z" fill="#e85300"/><path d="M1859,1009l-8,9h15l-2-10C1862.654,1008.315,1860.364,1008.71,1859,1009Z" fill="#e5e5e5"/><path d="M1864,1008l-1-2h0v-1l-4,4C1860.364,1008.71,1862.654,1008.315,1864,1008Z" fill="#fff"/><path d="M1826,1013l-4,5h14l6-6C1836.736,1012.693,1831.47,1012.615,1826,1013Z" fill="#e5e5e5"/><path d="M1842,1012l12-13h-14l-14,14C1831.47,1012.615,1836.736,1012.693,1842,1012Z" fill="#fff"/><path d="M1811,1014l-4,4h15l4-5C1821.007,1013.351,1816.154,1013.888,1811,1014Z" fill="#e85300"/><path d="M1826,1013l14-14h-15l-14,15C1816.154,1013.888,1821.007,1013.351,1826,1013Z" fill="#fc6703"/><path d="M1783,1019l2-1v-4l-2,1Z" fill="#e5e5e5"/><circle cx="6.5" cy="6.5" r="6.5" transform="translate(1777 955)" fill="#a3a3a3"/><circle cx="6.5" cy="6.5" r="6.5" transform="translate(1778 955)" fill="#c9c9c9"/><ellipse cx="4" cy="4.5" rx="4" ry="4.5" transform="translate(1781 957)" fill="#ffc200"/><path d="M1781,964c1.057,2.1,3.9,2.056,6,1s3.057-2.9,2-5C1788.8,963.59,1783.573,965.328,1781,964Z" fill="#ef9900"/><path d="M1782,962c.766.524.836-1.351,2-2,1.36-.758,3.722-.278,3-1-.519-.518-2.876-1.589-4-1C1781.707,958.676,1781.291,961.514,1782,962Z" fill="#ffe98f"/><path d="M1785,966c-1.7,0-3.183-.376-4-2-.559-1.111-1.39-2.82-1-4a6.5,6.5,0,0,1,3-3c2.293-1.153,4.847.707,6,3h0a4.354,4.354,0,0,1-2,6C1786.331,966.337,1785.7,966,1785,966Zm0-8c-.583,0-1.446-.279-2,0a3.535,3.535,0,0,0-2,2,3.959,3.959,0,0,0,0,3,4.994,4.994,0,0,0,6,2c1.9-.956,1.956-3.1,1-5A3.121,3.121,0,0,0,1785,958Z" fill="#a3a3a3"/><circle cx="6.5" cy="6.5" r="6.5" transform="translate(1836 955)" fill="#a3a3a3"/><circle cx="6.5" cy="6.5" r="6.5" transform="translate(1838 955)" fill="#c9c9c9"/><circle cx="4.5" cy="4.5" r="4.5" transform="translate(1840 957)" fill="#ffc200"/><path d="M1841,964c1.056,2.1,2.9,2.056,5,1s3.056-2.9,2-5C1847.8,963.59,1843.572,965.328,1841,964Z" fill="#ef9900"/><path d="M1841,962c.765.524,1.837-1.351,3-2,1.36-.758,2.723-.278,2-1-.518-.518-1.877-1.589-3-1C1841.707,958.676,1840.291,961.514,1841,962Z" fill="#ffe98f"/><path d="M1844,966c-.491,0-.52.159-1,0a4.765,4.765,0,0,1-3-2c-1.153-2.293-.293-5.846,2-7s5.846.707,7,3h0c1.153,2.292-.707,4.846-3,6C1845.341,966.331,1844.717,966,1844,966Zm0-8c-.582,0-.445-.279-1,0a3.78,3.78,0,0,0-2,5,3.538,3.538,0,0,0,2,2,3.959,3.959,0,0,0,3,0,3.779,3.779,0,0,0,2-5h0C1847.323,958.654,1845.414,958,1844,958Z" fill="#a3a3a3"/><path d="M1727,1015v3c.2,2.023,1.625,3.424,3,5l1,1c0,6.25-7.952,8.448-14,2l1-17Z" fill="#f2a787"/><path d="M1731,1024c2.1,2.177,3,5.576,3,11-20.864,0-23.19,3.092-37-1,0-3.3.676-3.824,11-6,9.408-1.984,6.524-6.515,10-4C1724.5,1028.864,1730.4,1029.569,1731,1024Z" fill="#b75858"/><path d="M1734,1039c-6.034.943-5-.224-7,0a133,133,0,0,1-17,1c-9.939-.012-13-2.231-13-3v-3c10.764,3.413,20.774,1,37,1A21.383,21.383,0,0,1,1734,1039Z" fill="#682121"/><path d="M1722,896l-5,68,1,7-1,44-2,3,2,3-2,1v3c1.747,1.747,11.922,5.2,19,3v-3l2-2v-6l3-53,14-74Z" fill="#303056"/><path d="M1763,1020v10l14-1-3-4,1-6Z" fill="#f2a787"/><path d="M1760,1040a127.721,127.721,0,0,0,23,0v-4a177.242,177.242,0,0,1-23,0Z" fill="#682121"/><path d="M1783,1036c-.4-4.256-3.061-3.352-6-8-1.515-3.363-12.444-3.823-14,0l-1,2c-1.371,1.639-2,2.818-2,6A116.778,116.778,0,0,0,1783,1036Z" fill="#b75858"/><path d="M1737,889l16,76,2,24,7,30-1,3,1,3v3l1,1c5.29-1.587,11.941-1.575,15,0l1-1-1-3,1-2-1-5-2-44c-1.248-26.317-4.431-56-9-80Z" fill="#303056"/><path d="M1740,956l5-26,8,35-6-39,9-2-7-1,13-8s-15.935,6-18,6-13-5-13-5l9,6-9,2,9,2Z" fill="#0c0c1c"/><path d="M1708,920c-.542.536,2.081-19.333,4-33a9.53,9.53,0,0,0,0-3l3-28V836c-9.715,2.421-4.526,5.438-12,22l-4,29s.107,1.523,1,13c1.071,13.75,1,20,1,20Z" fill="#ff9076"/><path d="M1712,884l8-20-5-30c-11.768,4.006-12.072,8.745-14,24-2.134,16.878-2,26-2,26C1702.537,881.4,1706.847,880.922,1712,884Z" fill="#303056"/><path d="M1720,864l-8,20-5-2c3.293-5.811,4.973-16.312,3-33Z" fill="#1f1f42"/><path d="M1714,881l-1,2v2l-1,2c-1.06-5.165-11.584-5.8-13,0l-1-1v-5C1701.312,875.6,1709.264,875.509,1714,881Z" fill="#4d4d7a"/><path d="M1738,829c5.066,1.1,10.746.3,16,3,.071,20.394,10.165,38.428,13,55,.15.877,2,3,2,3l-1,2,1,2-1,1s-16.107,15.536-47,5v-3l-1-2,1-4v-8c-5.638-11.486-7.62-26.034-11-40l5-9Z" fill="#1f1f42"/><path d="M1738,829c5.066,1.1,10.746.3,16,3,.071,20.394,10.165,38.428,13,55,.15.877,2,3,2,3l-1,2,1,2,1,11s-7.314,7-21,9a62.3,62.3,0,0,1-29-3l1-13v-1l-1-2,1-4v-8c-5.638-11.486-13.186-33.562-12-46a35.464,35.464,0,0,1,9-4c2.822,13.581,5.492,26.572,13,37C1738.831,858.077,1738.454,844.079,1738,829Z" fill="#fc6703"/><path d="M1749,914c13.686-2,21-9,21-9l-1-11-1-2,1-2s-1.85-2.123-2-3l-13,7Z" fill="#cc470d"/><path d="M1750,854s-.092,17.875-1,31l1,5-2,16,15-23Z" fill="#cc470d"/><path d="M1721,883c16.307,4.028,30.521-1.141,44-7l1,6c-14.788,5.548-29.187,9.323-45,5Z" fill="#f2f2f2"/><path d="M1721,898c17.647,4.439,32.412.457,47-6l1,2v2c-16,6.114-31.887,10.764-49,6Z" fill="#f2f2f2"/><path d="M1768,892l1,2v2a152.539,152.539,0,0,1-17,6l1-5C1758.618,895.348,1763.685,893.985,1768,892Z" fill="#ccc"/><path d="M1711,835c.186,10.243,4.53,32.809,13,50l3,1c-8.673-15.477-12.369-40.317-12-52C1713.748,834.437,1712.255,834.34,1711,835Z" fill="#f2f2f2"/><path d="M1744,830c-3.467,10.145-4.373,32.392,1,54h4c-5.059-24.6-4.674-42.409-1-54C1746.639,829.707,1745.388,830.152,1744,830Z" fill="#f2f2f2"/><path d="M1750,882v5a81.442,81.442,0,0,0,13-4l-3-5C1756.423,879.49,1753.707,880.964,1750,882Z" fill="#ccc"/><path d="M1749,898l-1,5h2l3-6C1751.514,897.422,1750.635,897.642,1749,898Z" fill="#ccc"/><path d="M1717,845v1l4-2-2-5Z" fill="#cc470d"/><path d="M1738,840v5l1-2h4l1-1-3-5Z" fill="#cc470d"/><path d="M1737,827c7.436,1.37,8.074,4.291,7,15l-5-1c-4.53,2.948-7.2,7.286-10,13-2.448-5.3-5.217-10.38-9-12l-3,3c-2.187-11.739-1.124-13.156,4-15Z" fill="#4d4d7a"/><path d="M1729,854c3.505-12.771,9.026-14.513,10-18,.913-3.269-.344-4.024-1-5-1.952-1.805-6.766-3.585-17-3C1717.891,841.524,1726.054,842.109,1729,854Z" fill="#fff"/><path d="M1738,831a12.217,12.217,0,0,1-1,4,8.531,8.531,0,0,1-8,5c-3.738,0-5.749,1.55-7-4a36.492,36.492,0,0,1-1-8l14-3Z" fill="#ea7a68"/><path d="M1712,828c.733,3.565,4.691,6.27,6,6s1.733-3.434,1-7-2.691-6.269-4-6S1711.267,824.435,1712,828Z" fill="#e85300"/><path d="M1720,827c1.271,6.183-.873,6.768-2,7s-2.269-2.448-3-6-1.128-6.769,0-7S1718.767,821,1720,827Z" fill="#2d0110"/><path d="M1739,821h0a5.4,5.4,0,0,1,0,3,7.529,7.529,0,0,1-1,2c-.221.241.065.552,0,1-.2,1.406-1.494.728-2,0a29.268,29.268,0,0,1,0-3c.081-1.2-.154-2.234,0-3C1736.426,818.88,1738.415,818.83,1739,821Z" fill="#ff9076"/><path d="M1737,820l-1,6c.49,2.974.473,4.636,0,6a15.431,15.431,0,0,1-3,5c-1.622,1.974-1.939,3.774-6,4s-4.213-1.2-6-3c-2.086-2.1-2.259-3.586-3-5s-1-6-1-6l-3-6c-.347-2.259-3.095-15.216,11-16S1737.092,817.772,1737,820Z" fill="#ff9076"/><path d="M1736,829c.5,3.153-1.183,5.789-3,8-1.622,1.974-1.939,3.774-6,4s-4.213-1.2-6-3a11.521,11.521,0,0,1-3-6c2.111,4.235,5.4,7,8,7C1729.592,839,1734.295,834.554,1736,829Z" fill="#c96e61"/><path d="M1717,827c-.923-.265-2.449-1.874-3-7-.656-7.8-3.095-14.216,11-15s12.888,6.719,13,14c-.08,5.076-1.131,6.908-2,7v-4l-1-1s1.475-6.855-1-10c-2.861-3.636-6.013.834-9,1s-5.618-4.1-9-1c-2.292,2.1-1,10-1,10v3Z" fill="#2d0110"/><path d="M1725,833c-1.151,0-3.558-1.379-4,0l1,5v-5a6.932,6.932,0,0,0,4,1,8.178,8.178,0,0,0,4-2l2,5c1.611-1.174-.525-3.933-1-5C1730.3,830.429,1726.151,833,1725,833Z" fill="#c96e61"/><path d="M1727,823l-1,2a4.289,4.289,0,0,0,3,2l5-3C1731.971,824.091,1727.715,822.876,1727,823Z" fill="#c9544b"/><path d="M1727,831a2.493,2.493,0,0,1-2,2c-1.686.208-2-2-2-2l1-1c-.541-1.965.065-2.16-1-4l-1-2a22.178,22.178,0,0,0-5,0l3,2,2,1s1.292,2.271,1,4c0,0,.317,1.995,2,2C1726.635,833.005,1727,831,1727,831Z" fill="#c9544b"/><path d="M1731,826c.059.663-.295.915-1,1s-.942-.338-1-1,.295.084,1,0S1730.942,825.338,1731,826Z" fill="#2d0110"/><path d="M1728,826c.032.243.638.155,1,0,.776-.278.511.046,1,0,1.275-.078,1.788.207,2,0,.246-.24-1.264-1.222-3-1C1728,825.128,1727.973,825.786,1728,826Z" fill="#2d0110"/><path d="M1719,827c.1.657,1.3.09,2,0s1.1-.343,1-1-1.3-.09-2,0S1718.9,826.343,1719,827Z" fill="#2d0110"/><path d="M1722,827c0,.246-.622.113-1,0-.8-.191-.51-1.008-1-1-1.277.064-1.767,1.183-2,1-.271-.21,1.25-1.028,3-1A.892.892,0,0,1,1722,827Z" fill="#2d0110"/><path d="M1715,825a14.184,14.184,0,0,1,8,1v-2a12.2,12.2,0,0,0-8-1Z" fill="#2d0110"/><path d="M1733,822a14.355,14.355,0,0,0-7,2v1c1.874-1.31,6.07-.692,9-1h0A2.917,2.917,0,0,0,1733,822Z" fill="#2d0110"/><path d="M1723,831s-1.032.41-1,1,2,1,2,1Z" fill="#c9544b"/><path d="M1727,832s2.031-.444,2-1-1-1-1-1Z" fill="#c9544b"/><path d="M1727,838l2-3h-4l1,3Z" fill="#c96e61"/><path d="M1725,839l1-2h1l1,2Z" fill="#c96e61"/><path d="M1726,836a7.372,7.372,0,0,0,5-2c.141-.176-.824-.858-1-1s.142-.176,0,0c-.993,1.235-4.191,2.081-6,1-.194-.115.116-.194,0,0s-.194.884,0,1C1724.663,835.4,1725.212,836,1726,836Z" fill="#c9544b"/><path d="M1723,839l-2-6-1,3Z" fill="#c96e61"/><path d="M1730,838l2-4v3Z" fill="#c96e61"/><g opacity="0.5"><path d="M1717,829s4.275.725,5,0,1.389-3,3-3,1.168,2.631,3,3c3.182.641,8-2,8-2,1.213-.737,1.171-5.339,0-5-8.907,2.026-15.992,2.168-21,1C1713.843,823,1715.586,828.727,1717,829Z" fill="#fff"/></g><g opacity="0.71"><path d="M1719,824l-1,5h2l1-5Z" fill="#fff"/></g><g opacity="0.71"><path d="M1719,824l-2,5h0l1-5Z" fill="#fff"/></g><g opacity="0.71"><path d="M1731,823l-1,6,3-1v-5Z" fill="#fff"/></g><g opacity="0.71"><path d="M1734,823v5h1l-1-5Z" fill="#fff"/></g><g opacity="0.4"><path d="M1722,824c-2.558,0-4.893.491-7,0v-1c5.284,1.232,12.582.915,21-1v1C1730.86,824.169,1725.933,824,1722,824Z" fill="#fff"/></g><g opacity="0.4"><path d="M1721,829c-1.519,0-3.454.1-4,0v-1c1.839.325,4.529,1.471,5,1,.223-.223.859-.536,1-1,.266-.878.812-2,2-2,.917,0,.5.338,1,1a3.059,3.059,0,0,0,2,1c3.08.621,7.958-.982,8-1h0c-.179.079-4.789,2.647-8,2-.984-.2-1.506-1.351-2-2-.483-.633-.291-1-1-1-.815,0-1.693.989-2,2-.156.515.3.7,0,1C1722.738,829.262,1721.793,829,1721,829Z" fill="#fff"/></g><path d="M1731,834c.028,0-.029.01,0,0,.139-.048.048.14,0,0l-1-1c-.048-.14.139-1.048,0-1s-.047.86,0,1v1C1730.038,834.111,1730.888,834,1731,834Z" fill="#c9544b"/><path d="M1714,818c1.309-.056,2.626.077,4-1,2.264.872,3.676.664,7-1,2.249.957,6.647,1.79,10,0,0,2.943.536,5.575,2,5,.841-1.479,1.574-6.53,2-9,0,0-2.065-10.4-13-10a22.351,22.351,0,0,0-10,3C1712.652,806.694,1712.931,816.89,1714,818Z" fill="#2d0110"/><path d="M1735,825c.535,6.289,2.923,6.092,4,6s2.308-3.387,2-7-1.923-6.091-3-6S1734.481,818.9,1735,825Z" fill="#2d0110"/><path d="M1744,824c.308,3.626-2.749,6.894-4,7s-2.692-2.374-3-6,.749-6.894,2-7S1743.691,820.373,1744,824Z" fill="#fc6703"/><path d="M1744,824c.308,3.626-2.749,6.894-4,7-.833.071-1.495-1.086-2-3C1740.363,827.565,1742.766,826.772,1744,824Z" fill="#e85300"/><path d="M1711,817c3.5,4.85,25.378,3.028,29-1a24.425,24.425,0,0,0-2-8c-1.986-4.351-5.8-9-14-8C1708.914,801.849,1711,817,1711,817Z" fill="#fc6703"/><path d="M1739,815l-9,1c-1.671-6.12.125-11.7,4-13-3.08,1.552-4.358,6.622-3,12Z" fill="#e85300"/><path d="M1712,816l3,1c1.914-5.036,1.738-11.806,0-13,1.482,1.954,1.465,7.887,0,12Z" fill="#e85300"/><g opacity="0.4"><path d="M1711,817c3.5,4.85,25.378,3.028,29-1a24.425,24.425,0,0,0-2-8C1734.656,816.87,1721.152,819.091,1711,817Z" fill="#ba2c00"/></g><path d="M1711,817s-6.143,3.114,2,5c5.857,1.356,19.367.085,24-2a4.533,4.533,0,0,0,3-4C1732.04,819.2,1713.536,820.274,1711,817Z" fill="#fc6703"/><rect width="15" height="6" rx="3" transform="translate(1703 925)" fill="#0c0c1c"/><path d="M1732,938l12-7V904h-4Z" fill="#3c85aa"/><g opacity="0.23"><path d="M1732,938l12-7V904h-4Z" fill="#1f1f42"/></g><rect width="12" height="17" transform="translate(1720 940)" fill="#b7b7b7"/><path d="M1740,931l-14,8-14-8V904h28Z" fill="#4bbfe2"/><path d="M1729,904h11v27l-14,8Z" fill="#2f93ba"/><path d="M1712,931l14,8,14-8Z" fill="#3c85aa"/><path d="M1734,945l-8,3-8-3V915h16Z" fill="#d8d8d8"/><path d="M1734,897c0-1.441-16-1.441-16,0v18h16Z" fill="#0c0c1c"/><path d="M1740,901c0-3.02-28-3.02-28,0v3h28Z" fill="#0c0c1c"/><rect width="12" height="4" transform="translate(1720 957)" fill="#0c0c1c"/><rect width="12" height="4" transform="translate(1720 1002)" fill="#0c0c1c"/><rect width="12" height="26" transform="translate(1720 961)" fill="#d8d8d8"/><rect width="12" height="17" transform="translate(1720 985)" fill="#b7b7b7"/><rect width="4" height="28" transform="translate(1724 1006)" fill="#d8d8d8"/><path d="M1728,1034l2,9h-8l2-9Z" fill="#d8d8d8"/><g opacity="0.23"><path d="M1740,925V901c0-.838-2.976-.627-6-1v-3c0-.72-3.764-2-8-2,3.549,28.314,1.863,98.241,0,148h4l-2-9v-28h4v-4h0V985h0V957h0V946l2-1V934l6-3h8v-6Z" fill="#1f1f42"/></g><g opacity="0.23"><path d="M1720,1002v-5c4.782,1.438,8.109.362,12-4v9Z" fill="#1f1f42"/></g><g opacity="0.23"><path d="M1718,945l8,3,8-3v-7C1730.367,942.923,1725.664,945.168,1718,945Z" fill="#1f1f42"/></g><g opacity="0.23"><path d="M1728,1018l-4-2v-10h4Z" fill="#1f1f42"/></g><rect width="18" height="6" rx="3" transform="translate(1737 925)" fill="#0c0c1c"/><g opacity="0.19"><path d="M1717,931h-9a2.953,2.953,0,0,1-3-3h0a2.952,2.952,0,0,1,3-3h9a2.953,2.953,0,0,1,3,3h0A2.952,2.952,0,0,1,1717,931Z" fill="#0c0c1c"/><path d="M1733,938l13-7V904h-4Z" fill="#3c85aa"/><g opacity="0.23"><path d="M1733,938l13-7V904h-4Z" fill="#1f1f42"/></g><rect width="12.942" height="16.644" transform="matrix(1, 0.015, -0.015, 1, 1721.068, 940.006)" fill="#b7b7b7"/><path d="M1741,932l-13,7-14-8V904h28Z" fill="#4ea4c6"/><path d="M1731,904h11l-1,28-13,7Z" fill="#3c85aa"/><path d="M1714,931l14,8,13-7Z" fill="#3c85aa"/><path d="M1736,945l-9,3-8-4V915h17Z" fill="#d8d8d8"/><path d="M1737,897c.021-1.44-16.979-2.44-17-1l-1,19h17Z" fill="#0c0c1c"/><path d="M1742,902c.044-3.02-26.956-4.02-27-1l-1,3h28Z" fill="#0c0c1c"/><rect width="11.254" height="4.248" transform="translate(1721.669 956.661) rotate(0.832)" fill="#0c0c1c"/><rect width="11.254" height="4.248" transform="translate(1721.012 1001.879) rotate(0.833)" fill="#0c0c1c"/><rect width="11.254" height="25.618" transform="matrix(1, 0.015, -0.015, 1, 1721.608, 960.908)" fill="#d8d8d8"/><rect width="12.942" height="16.644" transform="matrix(1, 0.015, -0.015, 1, 1720.411, 985.224)" fill="#b7b7b7"/><rect width="4.441" height="27.32" transform="translate(1724.357 1006.176) rotate(0.833)" fill="#d8d8d8"/><path d="M1728,1034l2,9h-8l2-10Z" fill="#d8d8d8"/><g opacity="0.23"><path d="M1741,925l1-21v-2c.013-.838-1.982-1.583-5-2v-3c.01-.72-4.764-1.939-9-2,3.137,28.362.585,98.274-2,148h4l-2-9,1-28h3v-4h1V985h0V957h1V946l2-1V934l5-2v-1l9,1v-7Z" fill="#1f1f42"/></g><g opacity="0.23"><path d="M1720,1002v-5c4.761,1.507,9.046.3,13-4v9Z" fill="#1f1f42"/></g><g opacity="0.23"><path d="M1719,944l8,4,9-3v-7C1732.3,942.869,1726.661,944.279,1719,944Z" fill="#1f1f42"/></g><g opacity="0.23"><path d="M1729,1018l-5-2v-10h5Z" fill="#1f1f42"/></g><path d="M1754,932l-12-1a2.952,2.952,0,0,1-3-3h0a2.952,2.952,0,0,1,3-3h12c1.695.025,3.025,2.3,3,4h0A2.953,2.953,0,0,1,1754,932Z" fill="#0c0c1c"/></g><g opacity="0.19"><path d="M1714,931l-10,1a2.953,2.953,0,0,1-3-3h0c-.034-1.7,1.3-3.966,3-4h9c1.695-.033,3.967,1.306,4,3h0A2.952,2.952,0,0,1,1714,931Z" fill="#0c0c1c"/><path d="M1730,938l12-7V903h-5Z" fill="#3c85aa"/><g opacity="0.23"><path d="M1730,938l12-7V903h-5Z" fill="#1f1f42"/></g><rect width="12.942" height="16.644" transform="translate(1717.785 940.213) rotate(-1.128)" fill="#b7b7b7"/><path d="M1738,931l-14,8-14-7V904l27-1Z" fill="#4ea4c6"/><path d="M1726,904l11-1,1,28-14,8Z" fill="#3c85aa"/><path d="M1710,932l14,7,14-8Z" fill="#3c85aa"/><path d="M1733,944l-9,4-8-3-1-30h17Z" fill="#d8d8d8"/><path d="M1732,896c-.028-1.44-17.028-.44-17,1v18h17Z" fill="#0c0c1c"/><path d="M1737,901c-.059-3.02-27.059-2.02-27,1v2h27Z" fill="#0c0c1c"/><rect width="11.254" height="4.248" transform="translate(1718.956 956.838) rotate(-1.128)" fill="#0c0c1c"/><rect width="11.254" height="4.248" transform="translate(1719.846 1002.052) rotate(-1.128)" fill="#0c0c1c"/><rect width="11.254" height="25.618" transform="translate(1719.04 961.085) rotate(-1.128)" fill="#d8d8d8"/><rect width="12.942" height="16.644" transform="translate(1718.675 985.428) rotate(-1.128)" fill="#b7b7b7"/><rect width="4.441" height="27.32" transform="translate(1723.336 1006.232) rotate(-1.128)" fill="#d8d8d8"/><path d="M1728,1033l2,10h-8l2-9Z" fill="#d8d8d8"/><g opacity="0.23"><path d="M1738,925l-1-21v-3c-.017-.838-1.969-1.687-5-2v-3c-.014-.72-4.765-1.084-9-1,4.1,28.238,3.883,98.214,3,148h4l-2-10v-27h3v-4h1V985h-1l-1-24v-4h1V945l2-1V934l5-3h9l-1-6Z" fill="#1f1f42"/></g><g opacity="0.23"><path d="M1719,1002v-5c4.809,1.343,9.2-.562,13-5v10Z" fill="#1f1f42"/></g><g opacity="0.23"><path d="M1716,945l8,3,9-4v-7C1729.465,941.993,1723.666,945.017,1716,945Z" fill="#1f1f42"/></g><g opacity="0.23"><path d="M1728,1018l-4-2-1-10h5Z" fill="#1f1f42"/></g><path d="M1750,931h-12a2.952,2.952,0,0,1-3-3h0a2.953,2.953,0,0,1,3-3h12a2.952,2.952,0,0,1,3,3h0A2.953,2.953,0,0,1,1750,931Z" fill="#0c0c1c"/></g><path d="M1743,917c.4.647,7.473-18.853,11-32a29.477,29.477,0,0,1,1-3l-4-27,4-20c8.89,4.6,7.566,7.157,11,25l3,25c-.725,5.524-6.32,12.583-10,19a143.721,143.721,0,0,0-8,16Z" fill="#ff9076"/><path d="M1755,882l-5-25c-1.359-9.3-2.07-22.484,2-26,13.255,4.314,13.377,15.375,16,29,3.5,18.2,1,25,1,25C1766.16,881.655,1760.725,880.2,1755,882Z" fill="#303056"/><path d="M1753,879l1,2-1,2,1,2c2.228-4.779,13.966-1.973,14,4l1-1v-2l3-2C1770.291,875.629,1758.879,874.755,1753,879Z" fill="#4d4d7a"/><path d="M1745,908l-1,9s-1.519,1.055-3,2-2,7-2,7c1.485,1.14,12,2,12,2a24.864,24.864,0,0,0,1-9l4-6C1754,909.5,1748.917,906.505,1745,908Z" fill="#b78f8f"/><path d="M1751,928l1,3c.039,1.631-10.026,1.631-11,0l-2-5S1750.805,926.249,1751,928Z" fill="#a07070"/><path d="M1756,913l-4,6a24.864,24.864,0,0,1-1,9l-5,4-2-1a13.169,13.169,0,0,0,6-3,25.6,25.6,0,0,0,1-10l3-8A11.8,11.8,0,0,1,1756,913Z" fill="#a07070"/><path d="M1752,919c-.446-1.049-1.439-1.462-3-2,1.687.06,2.285-.011,3,1Z" fill="#a07070"/><path d="M1744,917a7.55,7.55,0,0,1,3-1,9.267,9.267,0,0,0-3,0Z" fill="#a07070"/><path d="M1711,907l-2,9a5.782,5.782,0,0,0,1,3,8.437,8.437,0,0,1,1,4v2h-2a5.112,5.112,0,0,0-4,4l1,2s-.645.547-2,0a12.867,12.867,0,0,1-3-2l-3-5a27.251,27.251,0,0,1,3-9l-2-8C1702.2,904.544,1707.963,904.109,1711,907Z" fill="#b78f8f"/><path d="M1698,924v5l1,3c1.056,1.057,8.25,1.031,9-1l-1-2c.592-2.466.191-3.521,2-4C1700.912,927.587,1698.855,922.46,1698,924Z" fill="#a07070"/><path d="M1699,907l2,8a27.251,27.251,0,0,0-3,9l3,5,2-1a11.952,11.952,0,0,1-4-5c.1-2.7,1.321-5.639,3-9v-8A9.982,9.982,0,0,0,1699,907Z" fill="#a07070"/><path d="M1701,915a5.405,5.405,0,0,1,4-1,4.457,4.457,0,0,0-4,0Z" fill="#a07070"/><path d="M1709,916c-.6-1.07-3-2-3-2a8.343,8.343,0,0,1,3,1Z" fill="#a07070"/><path d="M1707,925s2.9-2.822,2-3c-1.475-.29,0,3,0,3Z" fill="#a07070"/><g opacity="0.28"><path d="M1698,1038c.585-2.97,1.415-6.029,2-9,3.938.117,8.767.472,11,5-1.252-1.613-.7-4.832,1-5s3.7,1.46,5,3c-.252-5.738,4.177-11.139,8-9-.129-4.754,2.673-8.963,6-10s6.667,1.621,8,6a19.47,19.47,0,0,0,4-5c1.026-1.759,2.392-3.331,4-3,1.4.288,2.87,2.186,4,1a6.959,6.959,0,0,0,1-2c1.818-3.978,6.608-1.667,9-5,.96-1.336,1.005-3.715,2-5,2.364-3.055,7.7.155,10-3,3.251,8.243,4.757,17.126,7,26,2.228-1.835,4.433-3.549,7-4a6.312,6.312,0,0,1,7,4,19.881,19.881,0,0,0,1,3,3.756,3.756,0,0,0,4,2c1.5-.272,3.522-1.428,5-1,2.158.624,3.707,3.511,5,6,.817,1.572,4.183,7.429,5,9-6.117.546-14.917.96-21,2-7.32,1.252-13.887-2.283-21-5-2.8-1.069-6.118-2.478-9-2-1.8.3-3.217,1.523-5,2-3.107.832-7.841,2.234-11,2-11.443-.849-21.636-4.058-33-2-4.859.88-10.394,1.576-15,4-1.313.691-2.552,1.337-4,1a4.278,4.278,0,0,1-3-4C1692.222,1035.418,1697.686,1039.591,1698,1038Z" fill="#d8d8d8"/></g><g opacity="0.28"><path d="M1697,1039c.475-2.273.525-4.727,1-7,3.2.09,7.187.536,9,4-1.017-1.234.621-2.872,2-3s1.946.822,3,2c-.205-4.39,3.9-8.637,7-7-.1-3.638,2.3-7.206,5-8s4.919,1.65,6,5a15.26,15.26,0,0,0,3-4c.833-1.346,1.7-2.254,3-2,1.136.22,3.082.908,4,0,.4-.4.727-.437,1-1,1.475-3.043,5.059-1.449,7-4,.778-1.022,1.192-2.017,2-3,1.918-2.337,5.138-.586,7-3a160.658,160.658,0,0,1,7,20c1.808-1.4,2.917-2.655,5-3s5.042.542,6,3a24.9,24.9,0,0,0,1,3c.766,1.258,1.785,1.207,3,1s2.8-1.328,4-1c1.75.477,2.951,3.1,4,5l2,3c-4.963.417-10.064,4.2-15,5-5.94.958-11.228-.921-17-3-2.271-.818-4.662-.366-7,0-1.463.229-3.553-1.365-5-1-2.52.637-4.437.179-7,0a118.021,118.021,0,0,0-28,1c-3.942.673-8.263.146-12,2-1.066.529-1.826,1.257-3,1-1.033-.227-3.08-1.447-3-3C1692.18,1037.494,1696.745,1040.217,1697,1039Z" fill="#d8d8d8"/></g><g opacity="0.28"><path d="M1735,1039c-.4-2.425-.6-4.575-1-7-2.71.1-5.464.3-7,4,.861-1.316-.831-3.863-2-4s-2.106.743-3,2c.174-4.683-2.37-8.745-5-7,.089-3.879-1.711-7.153-4-8s-5.084,1.426-6,5c-.974-.91-1.294-2.564-2-4s-1.894-3.27-3-3c-.963.235-2.222,1.969-3,1a9.436,9.436,0,0,1-1-2c-1.25-3.246-4.354-1.279-6-4-.66-1.09-1.316-2.951-2-4-1.627-2.493-4.421.574-6-2-2.237,6.727-3.457,13.758-5,21a10.605,10.605,0,0,0-5-3,4.261,4.261,0,0,0-5,3,27.56,27.56,0,0,1-1,3c-.65,1.342-.97,1.222-2,1a5.37,5.37,0,0,0-3,0,7.363,7.363,0,0,0-4,4c-.562,1.283-2.438,5.718-3,7,4.208.445,9.815,1.151,14,2,5.036,1.022,10.107-1.783,15-4,1.926-.872,3.018-1.39,5-1a39.064,39.064,0,0,1,4,1c2.137.679,4.827.191,7,0,7.872-.693,15.181-1.68,23,0,3.342.718,6.831,1.022,10,3,.9.564,2,1.275,3,1,.876-.241,3.068-1.345,3-3C1739.847,1037.26,1735.216,1040.3,1735,1039Z" fill="#d8d8d8"/></g><g opacity="0.28"><path d="M1735,1039c-.432-2.273-.568-4.727-1-7-2.91.09-6.35.536-8,4,.925-1.234-.745-2.872-2-3s-2.041.822-3,2c.186-4.39-3.175-8.637-6-7,.1-3.638-1.542-7.206-4-8s-6.016,1.65-7,5c-1.046-.852-1.242-2.654-2-4s-1.812-2.254-3-2c-1.034.22-2.165.908-3,0-.37-.4-.751-.437-1-1-1.343-3.043-5.232-1.449-7-4-.709-1.022-.265-2.017-1-3-1.747-2.337-5.3-.586-7-3a170.65,170.65,0,0,0-6,20c-1.646-1.4-3.1-2.655-5-3a4.4,4.4,0,0,0-5,3,26.769,26.769,0,0,1-1,3c-.7,1.258-1.893,1.207-3,1s-1.908-1.328-3-1c-1.595.477-3.044,3.1-4,5l-2,3c4.519.417,9.506,4.2,14,5,5.409.958,9.744-1.921,15-4a14.334,14.334,0,0,1,7-1c1.332.229,2.682.635,4,1,2.295.637,4.666.179,7,0a94.214,94.214,0,0,1,25,1c3.59.673,7.6.146,11,2,.97.529,1.931,1.257,3,1,.941-.227,3.073-1.447,3-3C1739.836,1037.494,1735.232,1040.217,1735,1039Z" fill="#d8d8d8"/></g><g opacity="0.61"><path d="M1777,1039c-.387-2.387-1.323-6.382-4-6a17.834,17.834,0,0,0-6,2c-.186-3.078-1.673-5.114-4-5a12.262,12.262,0,0,0-5,1c2.608-9.035-1.454-15.874-6-19s-9.192,3.035-13,11a58.283,58.283,0,0,0-3,8c-.564-3.962-3.276-7.132-6-7-2.617.128-4.481,3.218-5,7-4.218-.119-13,11-13,11,24.6.743,52.034.637,81,0C1793,1042,1783,1040.234,1777,1039Z" fill="#fff"/></g><g opacity="0.61"><path d="M1787,1040a3.641,3.641,0,0,0-4-3,18.8,18.8,0,0,0-5,1c-.174-1.864-1.825-3.068-4-3a21.133,21.133,0,0,0-5,1c2.437-5.474-.752-10.106-5-12s-8.441,2.175-12,7a32.273,32.273,0,0,0-3,5c-.528-2.4-3.454-4.08-6-4a5.18,5.18,0,0,0-5,4c-3.94-.072-12,6-12,6,22.984.449,48.934,1.386,76,1C1802,1043,1792.611,1040.748,1787,1040Z" fill="#fff"/></g><path d="M1766,1041c-.235-.944-.368-2.151-2-2a17.774,17.774,0,0,0-4,1c-.113-1.217-1.58-2.045-3-2a9.682,9.682,0,0,0-3,0c1.591-3.573-.227-5.763-3-7s-5.678.851-8,4a20.723,20.723,0,0,0-2,3c-.344-1.566-1.338-2.053-3-2-1.6.05-3.683.505-4,2-2.572-.047-8,4-8,4,15,.293,32.333,1.252,50,1C1776,1043,1769.662,1041.487,1766,1041Z" fill="#fff"/><g opacity="0.61"><path d="M1665,1039c.4-2.387,1.24-6.382,4-6a24.1,24.1,0,0,1,7,2c.192-3.078,1.6-5.114,4-5a12.3,12.3,0,0,1,5,1c-2.69-9.035,1.312-15.874,6-19s9.073,3.035,13,11c1.508,3.06,3.178,5.531,4,8,.582-3.962,2.191-7.132,5-7,2.7.128,5.465,3.218,6,7,4.349-.119,13,11,13,11-25.365.743-54.13.637-84,0C1648,1042,1658.808,1040.234,1665,1039Z" fill="#fff"/></g><g opacity="0.61"><path d="M1664,1040a3.641,3.641,0,0,1,4-3,27.925,27.925,0,0,1,6,1c.174-1.864,1.826-3.068,4-3a21.142,21.142,0,0,1,5,1c-2.438-5.474.752-10.106,5-12s8.441,2.175,12,7a32.263,32.263,0,0,1,3,5,4.874,4.874,0,0,1,5-4,5.179,5.179,0,0,1,5,4c3.941-.072,12,6,12,6-22.984.449-48.934,1.386-76,1C1649,1043,1658.39,1040.748,1664,1040Z" fill="#fff"/></g><path d="M1685,1041a2.86,2.86,0,0,1,3-2,17.759,17.759,0,0,1,4,1c.114-1.217.581-2.045,2-2a9.683,9.683,0,0,1,3,0c-1.59-3.573,1.227-5.763,4-7s4.677.851,7,4c.892,1.21,2.514,2.024,3,3,.344-1.566,1.339-2.053,3-2,1.6.05,2.683.505,3,2,2.572-.047,8,4,8,4-15,.293-32.334,1.252-50,1C1675,1043,1681.338,1041.487,1685,1041Z" fill="#fff"/><path d="M1728,1045l-8-6-4,2-2-2-4,1h-3l-3-4-6,5-6-7-6,2-3,3-7,5C1697.051,1044.309,1721.492,1045.119,1728,1045Z" fill="#a3a3a3"/><path d="M1728,1045l-8-6-4,2-2-2-4,1h-3l-3-4-6,5-6-7-6,2,12,6,5-5,2,4,8-1,2,3,5-4,3,6Z" fill="#878787"/><path d="M1721,1045l9-6,4,2,2-2,4,1h3l3-4,7,5,5-7,7,2,3,3,8,6Z" fill="#a3a3a3"/><path d="M1721,1045l9-6,4,2,2-2,4,1h3l3-4,7,5,5-7,7,2-13,6-5-5-2,4-9-1-2,3-4-4-4,6Z" fill="#878787"/><path d="M1705,1026l-6-6v4Z" fill="#878787"/><path d="M1742,1031l5-4,1,3Z" fill="#878787"/><path d="M1740,1017l4-6,2,2Z" fill="#878787"/><path d="M1714,1037l-3-4-3,2Z" fill="#878787"/><path d="M1710,1017l-1-3h-3Z" fill="#878787"/></g></g></svg>