<svg xmlns="http://www.w3.org/2000/svg" xmlns:xlink="http://www.w3.org/1999/xlink" width="347.773" height="219.853" viewBox="0 0 347.773 219.853">
  <defs>
    <clipPath id="clip-path">
      <rect id="Rectangle_958" data-name="Rectangle 958" width="163.889" height="18.092" transform="translate(396.647 293.165)" fill="#f5d100"/>
    </clipPath>
    <clipPath id="clip-path-2">
      <path id="Path_2508" data-name="Path 2508" d="M406.872,210.044a5.4,5.4,0,1,0,7.173-2.6A5.394,5.394,0,0,0,406.872,210.044Z" fill="#eb8175"/>
    </clipPath>
    <clipPath id="clip-path-3">
      <path id="Path_2536" data-name="Path 2536" d="M509.225,290.814a5.457,5.457,0,1,0,7.679-.765A5.457,5.457,0,0,0,509.225,290.814Z" fill="#eb8175"/>
    </clipPath>
    <clipPath id="clip-path-4">
      <path id="Path_2544" data-name="Path 2544" d="M419.827,363.045,429.7,337.53a1.428,1.428,0,0,1,2.663,0l9.873,25.515Z" fill="#f5d100"/>
    </clipPath>
    <clipPath id="clip-path-5">
      <path id="Path_2546" data-name="Path 2546" d="M563.184,363.124l9.873-25.516a1.427,1.427,0,0,1,2.662,0l9.873,25.516Z" fill="#f5d100"/>
    </clipPath>
  </defs>
  <g id="Group_1832" data-name="Group 1832" transform="translate(263.219 -7650.783)">
    <g id="Group_1831" data-name="Group 1831" transform="translate(-974.145 7676)">
      <g id="Group_1830" data-name="Group 1830" transform="translate(407 -172)">
        <g id="Group_1757" data-name="Group 1757">
          <g id="Group_1755" data-name="Group 1755">
            <path id="Path_2468" data-name="Path 2468" d="M648.225,303.669a73.716,73.716,0,0,0,1.924-37.269c-4.178-19.32-17.638-42.708-56.479-52.8-73.535-19.107-99.067-74.983-167.852-57.189,0,0-36.913,6.708-54.384,67.789s-85.925,62.121-62.355,115.3c3.852,8.693,14.225,18.175,29.118,27.133l278.95-.938C636.424,342.521,642.424,322.471,648.225,303.669Z" fill="#ebebff"/>
          </g>
          <g id="Group_1756" data-name="Group 1756">
            <path id="Path_2469" data-name="Path 2469" d="M582.4,259.988H571.938V248.539a12.118,12.118,0,0,0-9.371-11.8V222.533h-3.852v13.939a12.12,12.12,0,0,0-11.022,12.067v11.786H537.282v13.132h-.7v24.407l-18.923-.136v-29.17H495.974v21.377H480.761V310.7H462.374v54.972H523.46v-.008h13.121v.008h76.6V296.353h-30.8Z" fill="#d6d7f4"/>
            <path id="Path_2470" data-name="Path 2470" d="M366.444,290.2V262.874h10.245V248.258h3.852v14.616h9.438V290.2h10.59v16.372h16.876V250.8h35.233V365.675H353.411V290.2Z" fill="#d6d7f4"/>
          </g>
        </g>
        <g id="Group_1764" data-name="Group 1764">
          <g id="Group_1761" data-name="Group 1761">
            <g id="Group_1758" data-name="Group 1758">
              <path id="Path_2471" data-name="Path 2471" d="M558.93,365.4l-160.582.125a11.013,11.013,0,0,1-11.022-11h0l182.607-.143h0A11.012,11.012,0,0,1,558.93,365.4Z" fill="#3d5ac4"/>
              <path id="Path_2472" data-name="Path 2472" d="M558.927,361.605l-160.582.126a11.005,11.005,0,0,1-10.334-7.213h-.685a11.013,11.013,0,0,0,11.022,11L558.93,365.4a11.012,11.012,0,0,0,11-11.021h-.684A11,11,0,0,1,558.927,361.605Z" fill="#5571e9"/>
              <path id="Path_2473" data-name="Path 2473" d="M489.006,358.126l-20.747.016a3.687,3.687,0,0,1-3.689-3.684h0l28.12-.022h0A3.687,3.687,0,0,1,489.006,358.126Z" fill="#27429c"/>
            </g>
            <g id="Group_1760" data-name="Group 1760">
              <path id="Path_2474" data-name="Path 2474" d="M560.536,354.383l-163.812.128-.077-98.875a10.271,10.271,0,0,1,10.262-10.279l143.271-.111a10.271,10.271,0,0,1,10.279,10.262Z" fill="#5571e9"/>
              <rect id="Rectangle_954" data-name="Rectangle 954" width="146.75" height="92.062" transform="translate(405.212 253.843)" fill="#312c76"/>
              <rect id="Rectangle_955" data-name="Rectangle 955" width="146.75" height="8.801" transform="translate(405.245 337.105)" fill="#151247"/>
              <rect id="Rectangle_956" data-name="Rectangle 956" width="146.75" height="4.369" transform="translate(405.178 253.843)" fill="#151247"/>
              <g id="Group_1759" data-name="Group 1759">
                <path id="Path_2475" data-name="Path 2475" d="M454.118,253.863l-48.9,48.98.034,43.12h.106l91.99-92.134Z" fill="#5571e9" opacity="0.16"/>
                <path id="Path_2476" data-name="Path 2476" d="M424.2,345.952l21.671-.021,91.99-92.134-21.671.021Z" fill="#5571e9" opacity="0.16"/>
                <path id="Path_2477" data-name="Path 2477" d="M534.737,345.861l17.248-17.275L551.96,295.9l-51.775,49.982Z" fill="#5571e9" opacity="0.16"/>
              </g>
            </g>
          </g>
          <g id="Group_1763" data-name="Group 1763">
            <rect id="Rectangle_957" data-name="Rectangle 957" width="163.889" height="18.092" transform="translate(396.647 293.165)" fill="#f5d100"/>
            <g id="Group_1762" data-name="Group 1762" clip-path="url(#clip-path)">
              <path id="Path_2478" data-name="Path 2478" d="M417.092,317.6h-14.1l12.138-27.767h14.1Z" fill="#fff"/>
              <path id="Path_2479" data-name="Path 2479" d="M447.164,317.6h-14.1L445.2,289.838h14.1Z" fill="#fff"/>
              <path id="Path_2480" data-name="Path 2480" d="M477.236,317.6h-14.1l12.138-27.767h14.1Z" fill="#fff"/>
              <path id="Path_2481" data-name="Path 2481" d="M507.308,317.6h-14.1l12.138-27.767h14.1Z" fill="#fff"/>
              <path id="Path_2482" data-name="Path 2482" d="M537.38,317.6h-14.1l12.138-27.767h14.1Z" fill="#fff"/>
            </g>
          </g>
        </g>
        <g id="Group_1785" data-name="Group 1785">
          <g id="Group_1771" data-name="Group 1771">
            <g id="Group_1767" data-name="Group 1767">
              <g id="Group_1766" data-name="Group 1766">
                <g id="Group_1765" data-name="Group 1765">
                  <path id="Path_2483" data-name="Path 2483" d="M383.487,261.928l-3.2.123-1.875-.6a2.037,2.037,0,0,0-2.3.8l-.237.351,9.366,5.173,1.811-3.885Z" fill="#14103d"/>
                  <path id="Path_2484" data-name="Path 2484" d="M385.235,267.865l-9.439-5.214.33-.6a.242.242,0,0,1,.331-.095l9.226,5.1-.448.81" fill="#14103d"/>
                </g>
                <path id="Path_2485" data-name="Path 2485" d="M387.043,263.9l2.474-4.282-2.474-4.419-3.556,6.73Z" fill="#eb8175"/>
              </g>
              <path id="Path_2486" data-name="Path 2486" d="M406.43,239.268s-13.348-3.83-14.633-.226-9.072,19.548-9.072,19.548l5.812,3.032,8.717-15.14,11.73-1.021Z" fill="#14103d"/>
            </g>
            <g id="Group_1770" data-name="Group 1770">
              <g id="Group_1769" data-name="Group 1769">
                <g id="Group_1768" data-name="Group 1768">
                  <path id="Path_2487" data-name="Path 2487" d="M395.579,266.787l-2.613,1.665-1.928.389a2.036,2.036,0,0,0-1.627,1.821l-.037.421,10.7-.016-.3-4.276Z" fill="#14103d"/>
                  <path id="Path_2488" data-name="Path 2488" d="M400.116,271.137l-10.784.016v-.682a.244.244,0,0,1,.244-.244l10.54-.017v.927" fill="#14103d"/>
                </g>
                <path id="Path_2489" data-name="Path 2489" d="M399.774,266.791l.342-7.174-4.262-.48-.275,7.651Z" fill="#eb8175"/>
              </g>
              <path id="Path_2490" data-name="Path 2490" d="M408.232,238.655l-12.58.573s-1.809.1-1.688,4.335.11,21.278.11,21.278l6.042.209,1.157-17.852,12.592-.155a6.775,6.775,0,0,0,6.174-3.993,4.931,4.931,0,0,0,.347-3.077Z" fill="#231c61"/>
            </g>
          </g>
          <g id="Group_1778" data-name="Group 1778">
            <g id="Group_1773" data-name="Group 1773">
              <g id="Group_1772" data-name="Group 1772">
                <path id="Path_2491" data-name="Path 2491" d="M396.294,236.118c0,1.194-.807,1.375-2,1.377s-2.32-.174-2.322-1.368a2.162,2.162,0,1,1,4.323-.009Z" fill="#e1ad9d"/>
                <path id="Path_2492" data-name="Path 2492" d="M397.812,237.338l-2.5.005a1.189,1.189,0,0,1-1.189-1.184h0a1.189,1.189,0,0,1,1.184-1.189l2.5-.005A1.19,1.19,0,0,1,399,236.149h0A1.189,1.189,0,0,1,397.812,237.338Z" fill="#e1ad9d"/>
              </g>
              <path id="Path_2493" data-name="Path 2493" d="M397.716,237.592l-.834-4.089,10.271-1.119,2.055-12c.207-1.091,1.786-2.444,2.877-2.237l-.314-.089a2.447,2.447,0,0,1,1.885,2.565l-2,14.355a2.011,2.011,0,0,1-1.5,1.579Z" fill="#c8c6f2"/>
            </g>
            <path id="Path_2494" data-name="Path 2494" d="M418.234,218.412a2.188,2.188,0,0,1,.617.142l.1.04a5.07,5.07,0,0,1,3.037,4.353l-1.605,17.026c-10.642-.092-12.154-1.318-12.154-1.318l.846-17.417c.129-1.642.883-3.188,2.754-3.343h0Z" fill="#d8d7fd"/>
            <g id="Group_1776" data-name="Group 1776">
              <g id="Group_1775" data-name="Group 1775">
                <g id="Group_1774" data-name="Group 1774">
                  <path id="Path_2495" data-name="Path 2495" d="M406.514,237.457c.082,1.191-.714,1.425-1.9,1.506s-2.326-.019-2.408-1.21a2.162,2.162,0,1,1,4.313-.3Z" fill="#eb8175"/>
                  <path id="Path_2496" data-name="Path 2496" d="M408.11,238.573l-2.492.171a1.19,1.19,0,0,1-1.266-1.1h0a1.191,1.191,0,0,1,1.1-1.265l2.492-.171a1.189,1.189,0,0,1,1.265,1.1h0A1.189,1.189,0,0,1,408.11,238.573Z" fill="#eb8175"/>
                </g>
                <path id="Path_2497" data-name="Path 2497" d="M408.03,238.833l-1.1-4.025,11.193-1.8-.636-10.408a2.6,2.6,0,0,1,2.444-2.207h0a2.447,2.447,0,0,1,2.052,2.434l.806,12.47a2.01,2.01,0,0,1-1.391,1.675Z" fill="#d8d7fd"/>
              </g>
            </g>
            <g id="Group_1777" data-name="Group 1777">
              <path id="Path_2498" data-name="Path 2498" d="M388.664,225.005l12.213,1.151a.856.856,0,0,1,.769.752l1.281,11a.855.855,0,0,1-.929.95l-12.415-1.171a.854.854,0,0,1-.771-.767l-1.078-10.986A.853.853,0,0,1,388.664,225.005Z" fill="#091218"/>
              <path id="Path_2499" data-name="Path 2499" d="M387.961,224.939l12.213,1.151a.854.854,0,0,1,.768.752l1.282,11.005a.855.855,0,0,1-.929.95l-12.416-1.171a.855.855,0,0,1-.77-.767l-1.079-10.986A.854.854,0,0,1,387.961,224.939Z" fill="#1b2934"/>
              <path id="Path_2500" data-name="Path 2500" d="M402.588,237.989l8.345.787a.463.463,0,0,1,.417.5h0a.462.462,0,0,1-.5.417L402,238.9Z" fill="#091218"/>
              <path id="Path_2501" data-name="Path 2501" d="M394.961,231.615a1.337,1.337,0,1,1-1.206-1.457A1.338,1.338,0,0,1,394.961,231.615Z" fill="#fff"/>
            </g>
            <path id="Path_2502" data-name="Path 2502" d="M417.095,225l.276,7.825-10.443,1.983,9.2-2.874Z" fill="#c8c6f2"/>
          </g>
          <g id="Group_1784" data-name="Group 1784">
            <g id="Group_1782" data-name="Group 1782">
              <path id="Path_2503" data-name="Path 2503" d="M411.556,217.373l.7,1.874a1.837,1.837,0,0,0,1.6,1.19h0a1.835,1.835,0,0,0,1.812-2.55l-1.224-2.877Z" fill="#eb8175"/>
              <path id="Path_2504" data-name="Path 2504" d="M412.178,219.042s3.439-.65,2.934-3.657-3.74-.661-3.74-.661l.315,3Z" fill="#e16c5f"/>
              <g id="Group_1781" data-name="Group 1781">
                <g id="Group_1780" data-name="Group 1780">
                  <path id="Path_2505" data-name="Path 2505" d="M406.872,210.044a5.4,5.4,0,1,0,7.173-2.6A5.394,5.394,0,0,0,406.872,210.044Z" fill="#eb8175"/>
                  <g id="Group_1779" data-name="Group 1779" clip-path="url(#clip-path-2)">
                    <path id="Path_2506" data-name="Path 2506" d="M413.76,213.392s-.849,4.323,2.328,4.417,1.447-8.107,1.447-8.107l-5.027-5.06-7.693,1.894.763,4.974s1.223.649,7.837-.441Z" fill="#231c61"/>
                    <path id="Path_2507" data-name="Path 2507" d="M410.621,210.011l2.527,3.7,2.179-2.407Z" fill="#231c61"/>
                  </g>
                </g>
                <path id="Path_2509" data-name="Path 2509" d="M412.911,212.39a1.525,1.525,0,1,0,2.028-.736A1.525,1.525,0,0,0,412.911,212.39Z" fill="#eb8175"/>
              </g>
            </g>
            <g id="Group_1783" data-name="Group 1783">
              <path id="Path_2510" data-name="Path 2510" d="M405.823,211.429s-1.166-4.253,1.591-6.885a5.532,5.532,0,0,1,8.009.38,8.481,8.481,0,0,1,1.78,5.4Z" fill="#f5d100"/>
              <path id="Path_2511" data-name="Path 2511" d="M406.409,211.358l-.033-2.655a1.25,1.25,0,0,1,1.191-1.264h0a1.249,1.249,0,0,1,1.3,1.124l.266,2.649" fill="none" stroke="#f1ab00" stroke-miterlimit="10" stroke-width="0.28"/>
              <line id="Line_110" data-name="Line 110" x1="12.381" y2="1.188" transform="translate(404.822 210.322)" fill="none" stroke="#fff" stroke-linecap="round" stroke-linejoin="round" stroke-width="1.121"/>
            </g>
          </g>
        </g>
        <g id="Group_1808" data-name="Group 1808">
          <g id="Group_1790" data-name="Group 1790">
            <g id="Group_1787" data-name="Group 1787">
              <path id="Path_2512" data-name="Path 2512" d="M529.922,353.776l2.775,2.689-3.164,1.7-2.71-2.655Z" fill="#eb8175"/>
              <path id="Path_2513" data-name="Path 2513" d="M510.387,333.692l1.855,8.208a13.041,13.041,0,0,0,2.111,4.669l12.208,10.968,4.829-3.933-10.424-11.038-3.819-14.556Z" fill="#14103d"/>
              <g id="Group_1786" data-name="Group 1786">
                <path id="Path_2514" data-name="Path 2514" d="M529.441,358.089l-1,3.19-1.142,1.59a2.027,2.027,0,0,0,.047,2.429l.259.332,7.789-7.258-3.114-2.914Z" fill="#14103d"/>
                <path id="Path_2515" data-name="Path 2515" d="M535.472,358.394l-7.851,7.315-.628-.674,7.851-7.315.628.674" fill="#14103d"/>
              </g>
            </g>
            <g id="Group_1789" data-name="Group 1789">
              <path id="Path_2516" data-name="Path 2516" d="M503.228,358.769l-1.041,3.476-3.575-.959,1.046-3.413Z" fill="#eb8175"/>
              <path id="Path_2517" data-name="Path 2517" d="M508.021,324.537l-10.014,33.849,6.319,1.578,5.637-16.969,6.924-11.1a15.267,15.267,0,0,0,.99-1.551,6.56,6.56,0,0,0,.792-3.234l-.024-2.2Z" fill="#231c61"/>
              <g id="Group_1788" data-name="Group 1788">
                <path id="Path_2518" data-name="Path 2518" d="M498.819,360.952l-3.159,1.167-1.971.068a2.041,2.041,0,0,0-1.908,1.533l-.105.411,10.583,1.741.406-4.277Z" fill="#14103d"/>
                <path id="Path_2519" data-name="Path 2519" d="M502.289,365.948l-10.667-1.755.151-.916,10.667,1.755-.151.916" fill="#14103d"/>
              </g>
            </g>
          </g>
          <g id="Group_1801" data-name="Group 1801">
            <g id="Group_1795" data-name="Group 1795">
              <g id="Group_1791" data-name="Group 1791">
                <path id="Path_2520" data-name="Path 2520" d="M494.045,290.156,490,296.47l1.939,1.393,4.189-6.681Z" fill="#334fbe"/>
                <path id="Path_2521" data-name="Path 2521" d="M488.789,279.692s1.87,7.826,11.346,10.908a.745.745,0,0,1,.52.6,2.868,2.868,0,0,1-1.974,3.446.756.756,0,0,1-.593-.094c-1.448-.907-8.578-5.075-15.5-3.873Z" fill="#4265d1"/>
                <path id="Path_2522" data-name="Path 2522" d="M488.789,279.692s-1.737,7.807-6.2,10.99C482.591,290.682,483.22,283.836,488.789,279.692Z" fill="#334fbe"/>
              </g>
              <g id="Group_1794" data-name="Group 1794">
                <g id="Group_1793" data-name="Group 1793">
                  <g id="Group_1792" data-name="Group 1792">
                    <path id="Path_2523" data-name="Path 2523" d="M488.679,296.061a3.208,3.208,0,0,0,2.326,3.483,2.655,2.655,0,0,0,3.133-2.07,3.21,3.21,0,0,0-2.326-3.483A2.655,2.655,0,0,0,488.679,296.061Z" fill="#eb8175"/>
                  </g>
                  <path id="Path_2524" data-name="Path 2524" d="M496.283,300.278l-2.806-2.931-1.833,2.255,4.639,3.4" fill="#eb8175"/>
                </g>
                <path id="Path_2525" data-name="Path 2525" d="M495.837,297.568l-2.966,4.409,8.109,7.423a4.286,4.286,0,0,0,1.524.147l10.708-1.388a3.059,3.059,0,0,0,2.91-3.2h0c-.08-1.687.244-4.129-1.444-4.049l-12.44,2.555Z" fill="#c8c6f2"/>
              </g>
            </g>
            <g id="Group_1797" data-name="Group 1797">
              <g id="Group_1796" data-name="Group 1796">
                <path id="Path_2526" data-name="Path 2526" d="M519.851,307.685a6.149,6.149,0,0,0-2.76-5.926,3.955,3.955,0,0,0-2.413-.849,6.068,6.068,0,0,0-5.27,4.211c-1.6,4.9-2.055,19.393-2.055,19.393l11.478.392Z" fill="#d8d7fd"/>
              </g>
              <path id="Path_2527" data-name="Path 2527" d="M515.615,308.05l3.451,12.682.7-10.759Z" fill="#c8c6f2"/>
            </g>
            <g id="Group_1800" data-name="Group 1800">
              <g id="Group_1799" data-name="Group 1799">
                <g id="Group_1798" data-name="Group 1798">
                  <path id="Path_2528" data-name="Path 2528" d="M529.681,333.076a3.209,3.209,0,0,0,.178-4.185,2.654,2.654,0,0,0-3.75-.178,3.21,3.21,0,0,0-.179,4.185A2.656,2.656,0,0,0,529.681,333.076Z" fill="#eb8175"/>
                </g>
                <path id="Path_2529" data-name="Path 2529" d="M524.474,324.042l2.093,5.164,2.81-.739-1.738-5.483" fill="#eb8175"/>
              </g>
              <path id="Path_2530" data-name="Path 2530" d="M524.608,328.026l5.747-1.263-3.9-13.331a4.27,4.27,0,0,0-.688-1.369l-7.155-8.907c-.967-1.386-2.6-1.138-3.983-.172h0a3.06,3.06,0,0,0-.758,4.259l6.892,8.286Z" fill="#d8d7fd"/>
            </g>
          </g>
          <g id="Group_1807" data-name="Group 1807">
            <g id="Group_1805" data-name="Group 1805">
              <path id="Path_2531" data-name="Path 2531" d="M511.991,299.166l.218,2.01a1.855,1.855,0,0,0,1.268,1.563h0a1.856,1.856,0,0,0,2.412-2.047l-.484-3.126Z" fill="#eb8175"/>
              <path id="Path_2532" data-name="Path 2532" d="M512.185,300.956s3.545-.116,3.8-3.189-3.514-1.244-3.514-1.244l-.438,3.02Z" fill="#e16c5f"/>
              <g id="Group_1804" data-name="Group 1804">
                <g id="Group_1803" data-name="Group 1803">
                  <path id="Path_2533" data-name="Path 2533" d="M509.225,290.814a5.457,5.457,0,1,0,7.679-.765A5.457,5.457,0,0,0,509.225,290.814Z" fill="#eb8175"/>
                  <g id="Group_1802" data-name="Group 1802" clip-path="url(#clip-path-3)">
                    <path id="Path_2534" data-name="Path 2534" d="M515.143,295.812s-1.909,4.025,1.182,4.909,3.438-7.587,3.438-7.587l-3.669-6.212-8.013-.059-.49,5.066s1.038.941,7.792,1.52Z" fill="#231c61"/>
                    <path id="Path_2535" data-name="Path 2535" d="M512.908,291.715l1.557,4.253,2.735-1.817Z" fill="#231c61"/>
                  </g>
                </g>
                <path id="Path_2537" data-name="Path 2537" d="M514.561,294.617a1.543,1.543,0,1,0,2.171-.216A1.543,1.543,0,0,0,514.561,294.617Z" fill="#eb8175"/>
              </g>
            </g>
            <g id="Group_1806" data-name="Group 1806">
              <path id="Path_2538" data-name="Path 2538" d="M507.819,292.378s-.268-4.451,3.01-6.481a5.6,5.6,0,0,1,7.848,2.046,8.578,8.578,0,0,1,.635,5.713Z" fill="#f5d100"/>
              <path id="Path_2539" data-name="Path 2539" d="M508.413,292.43l.521-2.634a1.265,1.265,0,0,1,1.443-1h0a1.263,1.263,0,0,1,1.054,1.383l-.289,2.678" fill="none" stroke="#f1ab00" stroke-miterlimit="10" stroke-width="0.283"/>
              <line id="Line_111" data-name="Line 111" x1="12.501" y1="1.406" transform="translate(506.811 292.25)" fill="none" stroke="#fff" stroke-linecap="round" stroke-linejoin="round" stroke-width="1.133"/>
            </g>
          </g>
        </g>
        <g id="Group_1819" data-name="Group 1819">
          <g id="Group_1809" data-name="Group 1809">
            <line id="Line_112" data-name="Line 112" x1="12.934" y2="12.751" transform="translate(582.678 326.009)" fill="none" stroke="#3d5ac4" stroke-miterlimit="10" stroke-width="2.649"/>
            <line id="Line_113" data-name="Line 113" x1="12.934" y2="12.751" transform="translate(582.678 312.384)" fill="none" stroke="#3d5ac4" stroke-miterlimit="10" stroke-width="2.649"/>
            <line id="Line_114" data-name="Line 114" x1="12.934" y2="12.751" transform="translate(582.678 298.758)" fill="none" stroke="#3d5ac4" stroke-miterlimit="10" stroke-width="2.649"/>
            <line id="Line_115" data-name="Line 115" x1="12.934" y2="12.751" transform="translate(582.678 285.132)" fill="none" stroke="#3d5ac4" stroke-miterlimit="10" stroke-width="2.649"/>
            <line id="Line_116" data-name="Line 116" x1="12.934" y2="12.751" transform="translate(582.678 271.506)" fill="none" stroke="#3d5ac4" stroke-miterlimit="10" stroke-width="2.649"/>
            <line id="Line_117" data-name="Line 117" x1="12.934" y2="12.751" transform="translate(582.678 257.88)" fill="none" stroke="#3d5ac4" stroke-miterlimit="10" stroke-width="2.649"/>
            <line id="Line_118" data-name="Line 118" x1="12.934" y2="12.751" transform="translate(582.678 244.254)" fill="none" stroke="#3d5ac4" stroke-miterlimit="10" stroke-width="2.649"/>
            <line id="Line_119" data-name="Line 119" x1="12.934" y2="12.751" transform="translate(582.678 230.628)" fill="none" stroke="#3d5ac4" stroke-miterlimit="10" stroke-width="2.649"/>
            <line id="Line_120" data-name="Line 120" x1="12.934" y2="12.751" transform="translate(582.678 217.002)" fill="none" stroke="#3d5ac4" stroke-miterlimit="10" stroke-width="2.649"/>
            <line id="Line_121" data-name="Line 121" x1="12.934" y2="12.751" transform="translate(582.678 203.376)" fill="none" stroke="#3d5ac4" stroke-miterlimit="10" stroke-width="2.649"/>
            <line id="Line_122" data-name="Line 122" x1="12.934" y2="12.751" transform="translate(582.678 189.75)" fill="none" stroke="#3d5ac4" stroke-miterlimit="10" stroke-width="2.649"/>
            <line id="Line_123" data-name="Line 123" x2="12.934" transform="translate(582.678 325.134)" fill="none" stroke="#3d5ac4" stroke-miterlimit="10" stroke-width="2.649"/>
            <line id="Line_124" data-name="Line 124" x2="12.934" transform="translate(582.678 311.509)" fill="none" stroke="#3d5ac4" stroke-miterlimit="10" stroke-width="2.649"/>
            <line id="Line_125" data-name="Line 125" x2="12.934" transform="translate(582.678 297.883)" fill="none" stroke="#3d5ac4" stroke-miterlimit="10" stroke-width="2.649"/>
            <line id="Line_126" data-name="Line 126" x2="12.934" transform="translate(582.678 284.257)" fill="none" stroke="#3d5ac4" stroke-miterlimit="10" stroke-width="2.649"/>
            <line id="Line_127" data-name="Line 127" x2="12.934" transform="translate(582.678 270.631)" fill="none" stroke="#3d5ac4" stroke-miterlimit="10" stroke-width="2.649"/>
            <line id="Line_128" data-name="Line 128" x2="12.934" transform="translate(582.678 257.005)" fill="none" stroke="#3d5ac4" stroke-miterlimit="10" stroke-width="2.649"/>
            <line id="Line_129" data-name="Line 129" x2="12.934" transform="translate(582.678 243.379)" fill="none" stroke="#3d5ac4" stroke-miterlimit="10" stroke-width="2.649"/>
            <line id="Line_130" data-name="Line 130" x2="12.934" transform="translate(582.678 229.753)" fill="none" stroke="#3d5ac4" stroke-miterlimit="10" stroke-width="2.649"/>
            <line id="Line_131" data-name="Line 131" x2="12.934" transform="translate(582.678 216.127)" fill="none" stroke="#3d5ac4" stroke-miterlimit="10" stroke-width="2.649"/>
            <line id="Line_132" data-name="Line 132" x2="12.934" transform="translate(582.678 202.501)" fill="none" stroke="#3d5ac4" stroke-miterlimit="10" stroke-width="2.649"/>
            <line id="Line_133" data-name="Line 133" y1="150.524" transform="translate(582.678 191.929)" fill="none" stroke="#5571e9" stroke-miterlimit="10" stroke-width="2.649"/>
            <line id="Line_134" data-name="Line 134" y1="150.524" transform="translate(595.612 191.929)" fill="none" stroke="#5571e9" stroke-miterlimit="10" stroke-width="2.649"/>
            <rect id="Rectangle_959" data-name="Rectangle 959" width="25.757" height="26.762" transform="translate(576.01 338.76)" fill="#231c61"/>
          </g>
          <g id="Group_1818" data-name="Group 1818">
            <g id="Group_1810" data-name="Group 1810">
              <path id="Rectangle_960" data-name="Rectangle 960" d="M4.3,0H17.764a4.3,4.3,0,0,1,4.3,4.3V21.187a4.3,4.3,0,0,1-4.3,4.3H4.3a4.3,4.3,0,0,1-4.3-4.3V4.3A4.3,4.3,0,0,1,4.3,0Z" transform="translate(577.884 166.442)" fill="#3d5ac4"/>
              <path id="Rectangle_961" data-name="Rectangle 961" d="M0,0H8.666a3.259,3.259,0,0,1,3.259,3.259V8.666a3.259,3.259,0,0,1-3.259,3.259H0a0,0,0,0,1,0,0V0A0,0,0,0,1,0,0Z" transform="translate(579.894 172.588)" fill="#2f4dab"/>
            </g>
            <g id="Group_1817" data-name="Group 1817">
              <g id="Group_1813" data-name="Group 1813">
                <line id="Line_135" data-name="Line 135" x2="10.347" y2="30.057" transform="translate(497.344 193.32)" fill="none" stroke="#231c61" stroke-miterlimit="10" stroke-width="2.162"/>
                <line id="Line_136" data-name="Line 136" x1="20.177" y2="27.252" transform="translate(469.97 189.75)" fill="none" stroke="#231c61" stroke-miterlimit="10" stroke-width="2.162"/>
                <g id="Group_1812" data-name="Group 1812">
                  <rect id="Rectangle_962" data-name="Rectangle 962" width="47.998" height="47.999" rx="6.838" transform="matrix(-0.607, -0.794, 0.794, -0.607, 483.047, 264.974)" fill="#f5d100"/>
                  <rect id="Rectangle_963" data-name="Rectangle 963" width="39.272" height="39.272" rx="5.595" transform="matrix(-0.607, -0.794, 0.794, -0.607, 483.862, 258.858)" fill="none" stroke="#231c61" stroke-miterlimit="10" stroke-width="1.114"/>
                  <g id="Group_1811" data-name="Group 1811">
                    <path id="Path_2540" data-name="Path 2540" d="M489.3,241.506c-.54,4.048-6.682,3.229-6.143-.819C483.7,236.6,489.846,237.422,489.3,241.506Zm2.642-22.614-2.41,17.013-5.166-.689c.763-5.723,1.4-11.286,2.167-17.045Z" fill="#231c61"/>
                  </g>
                </g>
              </g>
              <g id="Group_1816" data-name="Group 1816">
                <g id="Group_1814" data-name="Group 1814">
                  <circle id="Ellipse_113" data-name="Ellipse 113" cx="8.65" cy="8.65" r="8.65" transform="translate(485.742 178.554)" fill="#231c61"/>
                  <path id="Path_2541" data-name="Path 2541" d="M500.508,187.2a6.117,6.117,0,1,1-6.116-6.116A6.116,6.116,0,0,1,500.508,187.2Z" fill="#373482"/>
                </g>
                <g id="Group_1815" data-name="Group 1815">
                  <line id="Line_137" data-name="Line 137" y2="18.335" transform="translate(528.311 148.107)" fill="none" stroke="#3d5ac4" stroke-miterlimit="10" stroke-width="2.649"/>
                  <line id="Line_138" data-name="Line 138" y2="18.335" transform="translate(511.869 148.107)" fill="none" stroke="#3d5ac4" stroke-miterlimit="10" stroke-width="2.649"/>
                  <line id="Line_139" data-name="Line 139" y2="18.335" transform="translate(544.699 148.107)" fill="none" stroke="#3d5ac4" stroke-miterlimit="10" stroke-width="2.649"/>
                  <line id="Line_140" data-name="Line 140" y2="18.335" transform="translate(562.908 148.107)" fill="none" stroke="#3d5ac4" stroke-miterlimit="10" stroke-width="2.649"/>
                  <line id="Line_141" data-name="Line 141" y2="18.335" transform="translate(579.894 148.107)" fill="none" stroke="#3d5ac4" stroke-miterlimit="10" stroke-width="2.649"/>
                  <line id="Line_142" data-name="Line 142" y2="18.335" transform="translate(597.505 148.107)" fill="none" stroke="#3d5ac4" stroke-miterlimit="10" stroke-width="2.649"/>
                  <line id="Line_143" data-name="Line 143" y2="18.335" transform="translate(614.803 148.107)" fill="none" stroke="#3d5ac4" stroke-miterlimit="10" stroke-width="2.649"/>
                  <line id="Line_144" data-name="Line 144" y1="18.335" x2="17.298" transform="translate(511.013 148.107)" fill="none" stroke="#3d5ac4" stroke-miterlimit="10" stroke-width="2.649"/>
                  <line id="Line_145" data-name="Line 145" y1="18.335" x2="17.298" transform="translate(528.311 148.107)" fill="none" stroke="#3d5ac4" stroke-miterlimit="10" stroke-width="2.649"/>
                  <line id="Line_146" data-name="Line 146" y1="18.335" x2="17.298" transform="translate(545.61 148.107)" fill="none" stroke="#3d5ac4" stroke-miterlimit="10" stroke-width="2.649"/>
                  <line id="Line_147" data-name="Line 147" y1="18.335" x2="17.298" transform="translate(562.908 148.107)" fill="none" stroke="#3d5ac4" stroke-miterlimit="10" stroke-width="2.649"/>
                  <line id="Line_148" data-name="Line 148" y1="18.335" x2="17.298" transform="translate(580.206 148.107)" fill="none" stroke="#3d5ac4" stroke-miterlimit="10" stroke-width="2.649"/>
                  <line id="Line_149" data-name="Line 149" y1="18.335" x2="17.298" transform="translate(597.505 148.107)" fill="none" stroke="#3d5ac4" stroke-miterlimit="10" stroke-width="2.649"/>
                  <path id="Path_2542" data-name="Path 2542" d="M494.392,166.442H635.429l-18.99-18.335H508.982Z" fill="none" stroke="#5571e9" stroke-linecap="round" stroke-linejoin="round" stroke-width="2.649"/>
                  <line id="Line_150" data-name="Line 150" y2="20.762" transform="translate(494.392 166.442)" fill="none" stroke="#5571e9" stroke-linecap="round" stroke-linejoin="round" stroke-width="2.649"/>
                </g>
              </g>
            </g>
          </g>
        </g>
        <g id="Group_1826" data-name="Group 1826">
          <g id="Group_1822" data-name="Group 1822">
            <g id="Group_1821" data-name="Group 1821">
              <path id="Path_2543" data-name="Path 2543" d="M419.827,363.045,429.7,337.53a1.428,1.428,0,0,1,2.663,0l9.873,25.515Z" fill="#f5d100"/>
              <g id="Group_1820" data-name="Group 1820" clip-path="url(#clip-path-4)">
                <rect id="Rectangle_964" data-name="Rectangle 964" width="17.529" height="5.416" transform="translate(422.114 343.016)" fill="#fafafa"/>
                <rect id="Rectangle_965" data-name="Rectangle 965" width="19.826" height="5.415" transform="translate(421.156 353.25)" fill="#fafafa"/>
              </g>
            </g>
            <rect id="Rectangle_966" data-name="Rectangle 966" width="26.129" height="2.15" transform="translate(418.023 363.045)" fill="#e8c400"/>
          </g>
          <g id="Group_1825" data-name="Group 1825">
            <g id="Group_1824" data-name="Group 1824">
              <path id="Path_2545" data-name="Path 2545" d="M563.184,363.124l9.873-25.516a1.427,1.427,0,0,1,2.662,0l9.873,25.516Z" fill="#f5d100"/>
              <g id="Group_1823" data-name="Group 1823" clip-path="url(#clip-path-5)">
                <rect id="Rectangle_967" data-name="Rectangle 967" width="17.529" height="5.416" transform="translate(565.471 343.094)" fill="#fafafa"/>
                <rect id="Rectangle_968" data-name="Rectangle 968" width="19.826" height="5.415" transform="translate(564.514 353.329)" fill="#fafafa"/>
              </g>
            </g>
            <rect id="Rectangle_969" data-name="Rectangle 969" width="26.129" height="2.15" transform="translate(561.38 363.124)" fill="#e8c400"/>
          </g>
        </g>
        <g id="Group_1829" data-name="Group 1829">
          <g id="Group_1828" data-name="Group 1828">
            <circle id="Ellipse_114" data-name="Ellipse 114" cx="20.502" cy="20.502" r="20.502" transform="translate(342.906 337.656) rotate(-81.529)" fill="#5571e9"/>
            <g id="Group_1827" data-name="Group 1827">
              <line id="Line_151" data-name="Line 151" y2="52.105" transform="translate(366.205 313.09)" fill="none" stroke="#3d5ac4" stroke-linecap="round" stroke-linejoin="round" stroke-width="1.137"/>
              <line id="Line_152" data-name="Line 152" x2="7.973" y2="8.941" transform="translate(358.233 314.152)" fill="none" stroke="#3d5ac4" stroke-linecap="round" stroke-linejoin="round" stroke-width="1.137"/>
              <path id="Path_2547" data-name="Path 2547" d="M373.277,322.6c-.571.571-7.072,7.341-7.072,7.341" fill="none" stroke="#3d5ac4" stroke-linecap="round" stroke-linejoin="round" stroke-width="1.137"/>
            </g>
          </g>
          <line id="Line_153" data-name="Line 153" x2="343.902" transform="translate(304.494 365.697)" fill="none" stroke="#3d5ac4" stroke-linecap="round" stroke-linejoin="round" stroke-width="1.137"/>
        </g>
      </g>
    </g>
  </g>
</svg>
